<?xml version="1.0" standalone="no"?>
<!DOCTYPE svg PUBLIC "-//W3C//DTD SVG 20010904//EN"
 "http://www.w3.org/TR/2001/REC-SVG-20010904/DTD/svg10.dtd">
<svg version="1.0" xmlns="http://www.w3.org/2000/svg"
 width="640.000000pt" height="640.000000pt" viewBox="0 0 640.000000 640.000000"
 preserveAspectRatio="xMidYMid meet">
<metadata>
Created by potrace 1.11, written by Peter Selinger 2001-2013
</metadata>
<g transform="translate(0.000000,640.000000) scale(0.100000,-0.100000)"
fill="#000000" stroke="none">
<path d="M3240 6320 c0 -5 -5 -9 -11 -7 -6 1 -13 -5 -15 -13 -2 -8 -8 -35 -14
-60 -6 -25 -13 -65 -15 -90 -1 -25 -6 -65 -9 -90 -4 -25 -9 -63 -12 -85 -3
-22 -7 -105 -9 -185 -1 -80 -3 -148 -4 -151 0 -3 -31 -7 -68 -9 -38 -1 -95 -4
-128 -5 -33 -1 -78 -5 -100 -9 -23 -3 -77 -9 -120 -12 -44 -3 -91 -7 -105 -9
-14 -1 -49 -3 -78 -4 -40 -1 -51 -4 -46 -13 6 -10 4 -10 -7 -2 -8 6 -23 10
-34 8 -30 -5 -104 -13 -165 -18 -30 -3 -82 -7 -115 -11 -33 -4 -74 -8 -91 -9
-39 -4 -68 -20 -91 -49 -19 -24 -63 -53 -63 -41 0 3 -7 1 -15 -6 -8 -7 -15
-10 -15 -6 0 4 -13 0 -30 -9 -37 -19 -34 -20 -102 26 -31 22 -60 39 -64 39 -4
0 -23 12 -42 27 -20 15 -32 20 -28 12 4 -8 1 -6 -7 3 -8 10 -17 15 -20 11 -4
-3 -7 -1 -7 6 0 7 -4 9 -10 6 -5 -3 -10 -2 -10 3 0 7 -44 33 -60 34 -3 1 -11
8 -18 17 -11 13 -12 13 -7 1 6 -13 5 -13 -7 0 -22 25 -76 60 -93 60 -9 0 -13
5 -10 10 3 6 -1 10 -9 10 -9 0 -16 5 -16 10 0 6 -7 10 -15 10 -8 0 -15 5 -15
10 0 6 -7 10 -15 10 -8 0 -15 4 -15 8 0 4 -13 16 -30 25 -16 10 -35 24 -43 31
-7 8 -31 22 -53 33 -38 19 -46 23 -113 58 -38 20 -91 28 -91 13 0 -5 -4 -7 -9
-4 -12 8 -30 -16 -41 -53 -5 -20 -5 -31 1 -31 6 0 8 -4 5 -9 -3 -5 1 -14 9
-21 8 -7 12 -16 9 -21 -3 -5 0 -9 5 -9 6 0 10 -3 9 -7 -3 -14 44 -113 54 -113
5 0 6 -4 3 -10 -3 -5 -1 -10 5 -10 6 0 8 -4 5 -10 -3 -5 -1 -10 4 -10 6 0 11
-6 11 -12 0 -18 -143 -16 -164 1 -9 8 -30 11 -52 8 -63 -9 -67 -47 -8 -69 19
-6 34 -15 34 -19 0 -18 137 -49 218 -49 25 0 50 -6 58 -15 9 -8 12 -15 9 -15
-4 0 5 -21 19 -46 l25 -45 -34 -15 c-19 -8 -41 -14 -49 -14 -8 0 -18 -5 -21
-10 -4 -6 -10 -8 -14 -6 -10 6 -51 -22 -51 -35 0 -5 15 -16 33 -25 29 -14 39
-14 95 -1 76 18 96 7 82 -42 -4 -16 -5 -33 -2 -37 4 -4 2 -4 -5 0 -6 3 -22 -4
-34 -16 -12 -13 -18 -17 -14 -9 5 8 -8 2 -28 -13 -20 -16 -37 -25 -37 -21 0 3
-7 0 -15 -7 -34 -31 -45 -38 -45 -31 0 4 -7 -1 -15 -11 -8 -11 -15 -16 -15
-12 0 4 -6 1 -13 -6 -8 -7 -31 -26 -52 -43 -58 -45 -154 -145 -184 -190 -14
-22 -31 -46 -38 -53 -6 -6 -15 -21 -18 -32 -3 -11 -11 -20 -16 -20 -5 0 -9 -3
-8 -7 2 -17 -14 -53 -24 -53 -6 0 -8 -3 -4 -6 3 -4 -2 -23 -12 -43 -11 -20
-19 -39 -20 -44 0 -4 -3 -17 -6 -30 -3 -12 -7 -40 -9 -62 -3 -22 -8 -51 -11
-65 -3 -14 -8 -35 -11 -47 -2 -13 -7 -35 -10 -50 -3 -16 -6 -57 -6 -93 0 -36
-3 -69 -7 -75 -3 -5 -6 -17 -7 -25 -2 -8 -6 -33 -9 -55 -10 -54 -10 -190 -1
-245 4 -25 9 -61 12 -80 2 -20 7 -47 10 -60 14 -65 15 -87 2 -88 -7 -1 -40 -6
-73 -12 -33 -6 -79 -12 -103 -14 -50 -4 -68 -16 -26 -17 16 0 47 -3 69 -5 22
-2 63 -6 90 -8 28 -3 54 -5 58 -5 5 -1 5 -5 2 -11 -3 -5 -2 -10 4 -10 5 0 8
-8 7 -17 -2 -9 3 -28 10 -42 7 -13 11 -28 8 -33 -3 -4 0 -8 6 -8 6 0 8 -4 5
-10 -3 -5 -1 -10 6 -10 7 0 10 -3 6 -6 -3 -4 0 -19 9 -35 8 -16 14 -31 14 -34
0 -3 7 -22 16 -43 9 -20 17 -42 18 -48 1 -7 8 -19 15 -28 7 -9 11 -16 8 -16
-4 0 5 -21 18 -46 14 -26 25 -51 25 -56 0 -10 -25 -38 -34 -38 -3 0 -34 -13
-68 -30 -34 -17 -67 -30 -74 -30 -6 0 -18 -7 -25 -16 -12 -15 -11 -16 16 -10
17 4 44 9 60 12 17 3 50 10 75 15 75 18 80 18 95 12 8 -3 12 -9 9 -14 -3 -5 0
-9 6 -9 6 0 8 -4 5 -10 -3 -5 -1 -10 6 -10 7 0 10 -3 6 -6 -3 -4 -1 -12 6 -20
26 -29 37 -44 36 -46 -2 -3 83 -138 133 -213 11 -16 38 -41 59 -55 21 -13 39
-28 39 -32 0 -4 4 -8 10 -8 5 0 29 -18 52 -40 24 -22 47 -40 51 -40 5 0 5 -5
1 -12 -4 -6 -3 -8 3 -5 5 3 20 -4 34 -17 14 -13 30 -25 37 -27 10 -3 9 -9 -3
-24 -9 -11 -14 -13 -10 -5 4 8 -3 4 -15 -10 -12 -14 -19 -18 -15 -10 4 8 -1 6
-10 -5 -9 -11 -19 -19 -23 -19 -12 2 -52 -19 -52 -28 0 -4 -3 -7 -7 -6 -13 3
-63 -25 -63 -34 0 -5 -4 -7 -9 -3 -6 3 -13 -1 -18 -9 -4 -8 -12 -16 -18 -17
-27 -5 -54 -23 -48 -32 3 -6 1 -7 -5 -3 -6 3 -17 -1 -25 -9 -9 -8 -19 -15 -23
-15 -4 0 -13 -8 -21 -17 -9 -11 -11 -12 -7 -3 8 16 -28 -11 -54 -40 -11 -13
-12 -13 -6 0 4 8 -23 -16 -61 -53 -37 -37 -72 -67 -77 -67 -5 0 -6 -4 -3 -10
3 -5 -1 -10 -9 -10 -9 0 -16 -5 -16 -11 0 -5 -5 -7 -10 -4 -6 3 -10 -2 -10
-11 0 -10 -3 -15 -6 -12 -3 3 -18 -6 -33 -20 -16 -15 -48 -43 -71 -62 -24 -19
-53 -44 -66 -56 -12 -12 -55 -48 -95 -81 -41 -33 -98 -83 -126 -110 -29 -28
-55 -48 -58 -45 -3 3 -5 -1 -6 -9 0 -8 -20 -30 -43 -49 -24 -19 -41 -38 -39
-42 2 -5 -4 -8 -13 -8 -10 0 -15 -2 -12 -5 3 -3 -24 -35 -59 -70 l-63 -65 0
-655 0 -655 782 2 782 3 1 50 c1 28 7 70 15 95 19 64 22 79 32 148 1 6 5 12
10 12 5 0 7 4 4 9 -3 5 0 13 7 19 9 8 28 -5 73 -46 57 -54 142 -162 128 -162
-4 0 3 -9 16 -20 13 -11 20 -20 16 -20 -4 0 -2 -6 3 -13 6 -6 23 -27 37 -45
l27 -33 108 2 c122 2 143 9 198 69 20 22 41 40 48 40 6 0 14 7 17 16 3 8 10
12 16 9 5 -3 10 -3 10 2 0 4 17 19 37 33 20 14 43 31 50 38 7 7 13 10 13 5 0
-4 4 -3 8 3 4 5 29 26 57 45 60 42 83 59 107 82 10 9 18 15 18 12 0 -6 34 22
144 118 113 100 286 279 286 298 0 6 5 7 10 4 6 -3 11 0 11 7 1 7 5 -5 8 -27
8 -48 -2 -115 -18 -125 -8 -4 -10 -31 -7 -79 4 -61 1 -80 -17 -115 -39 -76
-79 -97 -139 -72 -21 9 -33 -25 -19 -53 12 -21 25 -27 80 -36 63 -11 150 58
171 136 14 50 32 67 69 64 17 -1 28 1 25 6 -5 9 11 13 31 9 6 -1 7 1 3 5 -4 4
0 14 8 22 8 8 12 18 9 23 -3 5 -1 11 4 14 17 11 44 -35 49 -82 4 -45 2 -51
-38 -97 l-42 -49 21 -17 c32 -26 68 -14 123 41 36 36 37 39 35 109 -2 63 0 71
16 71 21 0 49 24 40 34 -4 3 -2 6 4 6 10 0 11 2 17 60 2 19 7 34 12 33 89 -21
155 -83 133 -125 -5 -9 -10 -35 -12 -58 -3 -33 1 -44 17 -56 18 -13 23 -10 58
27 21 22 36 45 32 50 -3 5 -1 9 4 9 12 0 9 33 -8 98 -10 39 -24 63 -52 88 -21
19 -34 34 -29 34 10 0 27 39 23 53 -1 4 2 7 6 7 5 0 9 28 10 63 1 34 5 82 8
107 4 25 7 54 7 65 0 41 -22 157 -32 169 -6 7 -8 16 -4 19 3 4 1 7 -6 7 -7 0
-9 5 -6 10 3 6 2 10 -3 10 -5 0 -15 13 -22 30 -7 16 -17 30 -23 30 -6 0 -7 3
-4 6 9 9 -55 64 -67 57 -5 -3 -6 -1 -3 4 6 10 -50 40 -65 35 -5 -1 -8 3 -8 8
0 6 -7 10 -16 10 -8 0 -12 4 -9 10 4 6 16 5 34 -5 16 -8 31 -11 35 -8 3 4 6 1
6 -5 0 -7 3 -11 8 -10 11 3 112 -25 112 -32 0 -3 10 -6 22 -7 11 -1 24 -6 27
-10 3 -4 15 -10 26 -11 56 -10 140 -64 240 -154 16 -16 38 -28 48 -29 9 -1 27
-2 40 -3 12 -1 33 1 47 5 14 4 31 8 39 10 7 2 23 13 36 24 33 30 57 48 95 72
19 12 44 30 55 40 11 11 38 31 60 46 22 15 36 27 32 27 -15 0 28 37 88 76 59
39 100 73 176 147 22 21 44 35 49 32 6 -3 10 -3 10 2 0 4 14 14 30 21 46 21
182 112 208 139 12 13 22 21 22 18 0 -6 107 102 176 179 52 58 69 59 73 4 1
-23 7 -48 13 -55 6 -7 7 -13 2 -13 -5 0 -4 -4 2 -8 6 -4 15 -25 21 -47 6 -22
12 -46 14 -54 6 -22 32 -51 41 -45 4 3 8 0 8 -5 0 -6 3 -10 8 -10 20 3 43 -2
38 -9 -3 -5 16 -5 42 -1 26 4 51 4 56 1 5 -3 6 0 3 5 -4 6 2 13 13 16 43 11
84 -53 99 -156 7 -42 22 -66 42 -67 7 0 53 81 54 95 1 6 -3 24 -8 40 -5 17 -9
36 -10 43 0 6 -4 12 -7 12 -4 0 -10 12 -13 28 -4 15 -20 42 -37 61 -16 18 -30
38 -30 42 0 10 1 10 68 11 26 0 60 8 77 18 42 24 92 16 133 -23 18 -18 32 -41
31 -52 -3 -37 1 -45 21 -45 22 0 62 67 57 97 -5 36 -65 120 -93 131 -19 8 -29
20 -30 35 -2 24 -8 52 -19 78 -5 13 3 19 32 26 21 5 48 9 60 8 12 -1 20 2 17
7 -3 4 2 8 10 8 9 0 16 7 16 15 0 20 34 19 65 -1 19 -12 23 -22 19 -40 -3 -13
0 -29 7 -37 11 -11 17 -11 42 1 47 24 53 51 23 110 -26 52 -64 80 -128 96 -16
3 -28 10 -28 15 0 5 -13 23 -30 41 -16 18 -30 36 -30 41 0 4 -11 18 -24 31
-58 55 -79 72 -72 58 6 -12 5 -12 -6 0 -15 19 -103 61 -129 63 -11 1 -19 4
-19 7 0 3 -8 6 -17 7 -10 1 -31 4 -48 8 -55 12 -241 15 -276 4 -40 -12 -65
-18 -99 -25 -14 -3 -34 -8 -45 -11 -11 -4 -22 -8 -25 -8 -27 -7 -90 -39 -90
-47 0 -5 -5 -6 -10 -3 -6 3 -13 -1 -16 -9 -3 -9 -13 -16 -21 -16 -8 0 -11 -4
-8 -10 3 -5 2 -10 -4 -10 -5 0 -12 -9 -16 -19 -3 -10 -19 -24 -35 -31 -16 -7
-27 -17 -23 -23 3 -5 1 -7 -5 -3 -11 7 -54 -26 -112 -84 -32 -32 -145 -126
-230 -190 -18 -14 -42 -33 -53 -42 -11 -10 -23 -18 -26 -18 -3 0 -19 -11 -34
-25 -15 -14 -27 -22 -27 -18 0 4 -4 3 -8 -3 -4 -7 -59 -46 -122 -88 -63 -42
-121 -81 -127 -87 -7 -5 -13 -7 -13 -3 0 4 -12 -3 -27 -17 -14 -13 -23 -17
-19 -9 5 9 2 8 -7 -2 -8 -10 -17 -15 -20 -11 -4 3 -7 1 -7 -6 0 -7 -4 -9 -10
-6 -5 3 -10 0 -10 -7 0 -10 -2 -10 -9 0 -4 8 -11 13 -15 13 -9 -2 -59 11 -71
18 -5 3 -14 6 -20 7 -5 1 -30 9 -54 18 -24 9 -48 13 -54 9 -6 -3 -7 -1 -3 5 4
7 2 13 -3 13 -18 2 -19 3 -121 42 -30 12 -58 21 -62 19 -5 -1 -8 2 -8 6 0 4
-17 14 -37 21 -21 8 -75 31 -120 52 -46 22 -89 39 -98 39 -8 0 -15 5 -15 12 0
6 -3 9 -6 5 -4 -3 -19 0 -34 8 -15 8 -30 11 -34 8 -3 -4 -6 0 -6 7 0 7 -3 11
-6 8 -3 -4 -20 0 -39 7 -18 8 -35 11 -39 8 -3 -4 -6 -2 -6 4 0 10 -64 29 -82
25 -5 -1 -8 2 -8 7 0 6 -9 8 -19 6 -13 -2 -18 2 -17 13 2 13 13 15 57 13 37
-1 70 4 101 18 26 11 73 23 104 27 77 9 78 9 90 16 6 4 25 -2 42 -13 43 -25
49 -25 110 16 28 20 52 34 52 31 0 -2 16 0 35 4 21 5 35 4 35 -2 0 -5 5 -6 12
-2 7 4 30 9 52 10 44 2 137 13 168 20 10 2 26 6 36 8 10 2 42 11 71 20 30 9
58 13 64 9 6 -3 7 -1 3 5 -4 7 -2 13 3 13 6 1 14 2 19 4 4 1 21 5 37 10 17 4
35 10 40 14 6 3 15 6 20 7 20 4 210 86 269 117 34 17 63 32 66 32 17 5 50 22
83 42 20 13 37 20 37 16 0 -5 5 0 11 10 6 9 14 15 20 12 5 -4 9 -1 9 4 0 6 6
11 14 11 7 0 19 7 26 15 7 8 16 12 21 9 5 -3 9 -2 9 3 0 4 12 17 27 27 17 13
24 14 19 5 -4 -8 -1 -6 7 4 8 9 19 17 26 17 6 0 11 5 11 10 0 6 7 10 15 10 8
0 15 4 15 8 0 4 12 15 28 24 15 9 37 25 48 35 12 10 36 29 54 43 120 92 255
233 290 302 16 32 40 73 54 91 15 19 26 36 26 39 0 3 10 27 22 54 12 27 23 51
23 54 1 3 4 14 8 25 7 23 18 74 19 93 1 6 5 12 9 12 8 0 24 40 21 53 -1 4 2 7
6 7 4 0 9 15 10 33 2 17 4 41 7 52 2 11 4 28 4 38 1 20 2 20 211 2 25 -2 83
-7 130 -10 100 -8 136 -12 169 -19 22 -5 23 -4 10 8 -12 12 -113 48 -169 61
-23 5 -104 25 -115 29 -5 1 -32 6 -60 10 -56 9 -92 15 -115 21 -8 2 -20 4 -25
4 -6 1 -10 54 -10 141 1 77 -3 140 -8 140 -5 0 -2 6 5 14 8 7 45 16 83 20 102
11 120 13 233 31 57 8 108 12 114 9 6 -4 8 -2 5 3 -4 6 12 13 41 16 71 9 113
17 152 30 19 6 39 11 44 12 5 0 11 5 13 11 5 14 -60 31 -103 28 -40 -3 -105
-13 -113 -18 -3 -2 -35 -7 -71 -11 -36 -4 -78 -8 -95 -10 -16 -2 -43 -6 -59
-9 -15 -3 -81 -8 -145 -12 l-116 -6 0 43 c0 37 -9 99 -26 169 -2 8 -8 18 -14
22 -11 8 35 27 75 30 17 1 30 5 30 9 0 3 19 10 43 14 23 4 47 9 52 11 64 20
115 31 119 26 3 -3 6 -1 6 5 0 6 14 13 30 16 61 12 114 36 160 74 35 27 42 44
28 59 -5 4 -8 2 -8 -4 0 -7 -3 -11 -7 -10 -7 2 -108 -12 -123 -17 -3 -1 -30
-7 -60 -13 -69 -15 -85 -19 -135 -31 -22 -6 -53 -12 -70 -15 -16 -3 -46 -10
-65 -16 -59 -17 -134 -24 -126 -11 4 6 2 11 -5 11 -7 0 -10 3 -6 6 6 7 -79
145 -97 156 -6 4 -7 8 -3 8 5 0 2 6 -5 14 -7 8 -22 26 -32 40 -56 78 -194 222
-208 218 -5 -1 -7 2 -3 7 8 14 -243 260 -351 343 -16 12 -32 27 -36 33 -4 5
-8 6 -8 1 0 -6 -7 -1 -16 10 -8 10 -13 12 -9 4 5 -12 4 -12 -7 1 -26 31 -221
133 -232 122 -3 -4 -6 0 -6 7 0 7 -3 11 -6 7 -3 -3 -25 2 -47 12 -23 10 -52
17 -64 16 -12 -1 -20 2 -17 7 3 4 -3 8 -13 9 -10 0 -25 2 -33 4 -43 11 -60 13
-120 20 -36 3 -77 8 -91 11 -37 6 -176 17 -226 18 l-43 0 23 21 c13 11 31 30
41 42 18 22 15 32 -21 82 -5 7 -43 -31 -39 -38 2 -3 -2 -12 -10 -19 -8 -7 -14
-10 -14 -6 0 3 -6 2 -12 -4 -12 -9 -104 -27 -120 -24 -5 1 -8 -2 -8 -6 0 -13
-30 -10 -31 2 0 6 -2 18 -4 26 -2 8 -6 27 -10 42 -3 15 -9 37 -14 49 -7 20 -1
29 37 64 87 78 97 90 100 118 4 30 -12 57 -33 57 -7 0 -35 -17 -62 -38 -74
-59 -90 -66 -109 -47 -8 8 -13 15 -9 15 3 0 -4 18 -16 40 -12 21 -26 37 -31
34 -5 -3 -8 -2 -7 3 1 4 -10 34 -25 66 -14 32 -27 69 -28 83 -1 13 -5 24 -8
24 -3 0 -6 12 -7 26 0 15 -7 30 -15 35 -7 5 -9 9 -4 9 5 0 3 6 -3 13 -6 8 -9
17 -6 20 3 4 2 5 -1 2 -4 -2 -13 2 -21 10 -16 17 -73 20 -73 5z m-625 -4610
c-17 -33 -17 -37 -4 -62 19 -35 45 -40 77 -13 27 23 36 24 87 11 6 -1 29 -12
52 -24 23 -12 49 -22 58 -22 9 0 14 -4 11 -9 -4 -5 2 -8 11 -7 10 2 33 -6 51
-16 19 -10 31 -14 27 -9 -3 6 10 4 29 -4 20 -8 45 -15 56 -15 14 0 19 -4 14
-12 -4 -6 -3 -8 4 -4 12 7 110 -12 117 -24 3 -4 -1 -8 -8 -7 -38 1 -57 -6 -82
-30 -16 -16 -25 -21 -20 -13 6 11 3 10 -12 -2 -11 -10 -25 -18 -31 -18 -7 0
-12 -5 -12 -11 0 -5 -4 -8 -9 -4 -5 3 -21 -6 -35 -20 -14 -14 -26 -23 -26 -20
0 3 -11 -6 -25 -21 -14 -15 -25 -23 -25 -18 0 5 -13 -6 -29 -23 -15 -18 -31
-30 -35 -26 -3 3 -6 0 -6 -7 0 -7 -3 -11 -6 -7 -3 3 -26 -15 -50 -40 -24 -24
-44 -43 -44 -40 0 3 -17 -12 -38 -32 -20 -20 -57 -52 -81 -71 -24 -19 -48 -40
-55 -45 -6 -6 -33 -26 -61 -45 -27 -18 -53 -38 -57 -44 -4 -6 -8 -7 -8 -3 0 4
-18 -9 -41 -30 -22 -21 -50 -43 -62 -50 -12 -6 -35 -28 -52 -49 -16 -21 -40
-48 -52 -60 -12 -12 -19 -25 -16 -28 4 -3 1 -6 -4 -6 -6 0 -25 -19 -43 -43
-17 -23 -36 -42 -43 -42 -7 0 -23 20 -36 45 -13 24 -30 50 -37 58 -8 7 -14 16
-14 20 0 4 -13 21 -28 38 -85 98 -80 89 -54 112 16 15 102 123 161 202 10 14
35 45 55 70 20 25 47 62 61 83 14 20 30 37 37 37 6 0 8 3 5 7 -4 3 6 19 22 34
16 15 27 30 23 33 -3 3 0 6 7 6 7 0 9 5 6 10 -4 6 -3 9 2 8 4 -2 9 1 10 5 1 4
20 26 42 47 22 22 38 40 35 40 -3 0 1 6 8 14 24 25 53 61 78 96 13 19 29 38
35 42 5 4 6 8 1 8 -5 0 1 9 14 20 13 11 20 20 16 20 -3 0 1 11 10 25 22 34 38
21 19 -15z"/>
<path d="M4237 5812 c-30 -6 -15 -36 25 -47 20 -5 44 -17 54 -26 11 -9 37 -20
59 -24 22 -4 70 -22 107 -41 66 -32 98 -35 98 -9 0 40 -109 115 -180 123 -19
2 -48 10 -65 17 -29 13 -61 16 -98 7z"/>
<path d="M2646 5795 c-31 -6 -59 -12 -61 -14 -3 -1 -13 -4 -22 -8 -25 -9 -54
-44 -47 -55 7 -12 128 -4 249 15 26 5 38 28 26 53 -12 28 -40 30 -145 9z"/>
<path d="M5376 4974 c-7 -18 14 -74 27 -74 5 0 5 -4 2 -10 -3 -5 -2 -10 3 -10
4 0 30 -20 58 -44 l49 -44 22 20 c21 19 21 23 8 49 -15 28 -74 79 -92 79 -5 0
-15 11 -21 25 -13 28 -47 33 -56 9z"/>
<path d="M380 4123 c-17 -20 -18 -31 -24 -165 -3 -80 -1 -101 13 -116 15 -17
53 -23 66 -11 6 6 7 139 1 216 -2 33 -27 93 -39 93 -1 0 -9 -8 -17 -17z"/>
<path d="M500 2088 c-30 -12 -58 -25 -61 -30 -3 -5 -10 -10 -15 -10 -31 -1
-168 -114 -217 -179 -26 -35 -26 -36 -9 -52 29 -27 47 -21 108 36 90 82 107
96 137 110 15 6 27 14 27 17 0 3 25 16 55 30 36 17 58 34 66 52 22 52 -4 59
-91 26z"/>
</g>
</svg>
